<?xml version="1.0" encoding="utf-8"?>
<!-- Generator: Adobe Illustrator 18.1.1, SVG Export Plug-In . SVG Version: 6.00 Build 0)  -->
<svg version="1.1" id="Layer_1" xmlns="http://www.w3.org/2000/svg" xmlns:xlink="http://www.w3.org/1999/xlink" x="0px" y="0px"
	 width="560px" height="560px" viewBox="188.5 0 560 560" enable-background="new 188.5 0 560 560" xml:space="preserve">
<g>
	
		<image overflow="visible" opacity="0.5" width="568" height="567" xlink:href="15F91E1829F968BB.png"  transform="matrix(1 0 0 1 185 -2)">
	</image>
	<g>
		<g>
			<g>
				<circle fill="#FFE1FF" cx="468.9" cy="274.4" r="258.4"/>
				<circle fill="none" stroke="#FFFFFF" stroke-width="20" stroke-miterlimit="10" cx="468.9" cy="274.4" r="258.4"/>
			</g>
		</g>
	</g>
</g>
<g>
	<path fill="#666666" d="M468.4,440.1c-1.1,0-2.2-0.3-3.2-0.9l-141.3-81.7c-3-1.7-4.1-5.6-2.3-8.7s5.6-4.1,8.7-2.3l138.2,79.9
		l138.4-79.9c3-1.7,6.9-0.7,8.7,2.3s0.7,6.9-2.3,8.7l-141.5,81.7C470.6,439.9,469.5,440.1,468.4,440.1z"/>
	<path fill="#666666" d="M468.4,391.8c-1.1,0-2.2-0.3-3.2-0.9l-141.3-81.6c-3-1.7-4.1-5.6-2.3-8.7s5.6-4.1,8.7-2.3l138.2,79.8
		l138.4-79.8c3-1.7,6.9-0.7,8.7,2.3s0.7,6.9-2.3,8.7l-141.5,81.6C470.6,391.5,469.5,391.8,468.4,391.8z"/>
	<path fill="#666666" d="M468.4,343.6c-1.1,0-2.2-0.3-3.2-0.9L323.9,261c-3-1.7-4.1-5.6-2.3-8.7s5.6-4.1,8.7-2.3l138.2,79.9
		L606.8,250c3-1.7,6.9-0.7,8.7,2.3s0.7,6.9-2.3,8.7l-141.5,81.7C470.6,343.2,469.5,343.6,468.4,343.6z"/>
	<path fill="#666666" d="M468.4,295.2c-1.1,0-2.2-0.3-3.2-0.9l-141.3-81.1c-2-1.1-3.2-3.2-3.2-5.5c0-2.3,1.2-4.4,3.2-5.5l141.3-81.5
		c2-1.1,4.4-1.1,6.3,0L613,202.2c2,1.1,3.2,3.2,3.2,5.5c0,2.3-1.2,4.4-3.2,5.5l-141.5,81.1C470.6,295,469.5,295.2,468.4,295.2z
		 M339.8,207.7l128.6,73.8l128.8-73.8l-128.8-74.2L339.8,207.7z"/>
</g>
<path fill="none" stroke="#FFFFFF" stroke-width="4" stroke-linecap="round" stroke-linejoin="round" stroke-miterlimit="10" d="
	M275.8,149.9"/>
<g display="none">
	
		<polyline display="inline" fill="none" stroke="#666666" stroke-width="5" stroke-linecap="round" stroke-linejoin="round" points="
		276.7,456 435.4,547.7 594.4,456 	"/>
	
		<polyline display="inline" fill="none" stroke="#666666" stroke-width="5" stroke-linecap="round" stroke-linejoin="round" points="
		276.7,401.8 435.4,493.5 594.4,401.8 	"/>
	
		<polyline display="inline" fill="none" stroke="#666666" stroke-width="5" stroke-linecap="round" stroke-linejoin="round" points="
		276.7,347.5 435.4,439.3 594.4,347.5 	"/>
	
		<polyline display="inline" fill="none" stroke="#666666" stroke-width="5" stroke-linecap="round" stroke-linejoin="round" points="
		276.7,293.3 435.4,385 594.4,293.3 	"/>
	
		<polyline display="inline" fill="none" stroke="#666666" stroke-width="5" stroke-linecap="round" stroke-linejoin="round" points="
		276.7,293.9 435.4,202.3 594.4,293.9 	"/>
</g>
</svg>
