<svg xmlns="http://www.w3.org/2000/svg" style="display: none;">
  
    <symbol id="icon-settings" viewBox="0 0 512 512">
      <path d="m480 203l-40 0c-4-14-9-27-16-40l28-28c6-6 9-14 9-22c0-9-3-17-9-23l-30-30c-12-12-33-12-45 0l-28 28c-13-7-26-12-40-16l0-40c0-18-14-32-32-32l-42 0c-18 0-32 14-32 32l0 40c-14 4-27 9-40 16l-28-28c-12-12-33-12-45 0l-30 30c-13 13-13 33 0 45l28 28c-7 13-12 26-16 40l-40 0c-9 0-17 3-23 9c-6 6-9 14-9 23l0 42c0 18 14 32 32 32l40 0c4 14 9 27 16 40l-28 28c-6 6-10 14-10 22c0 9 4 17 10 23l30 30c12 12 33 12 45 0l28-28c13 7 26 12 40 16l0 40c0 18 14 32 32 32l42 0c18 0 32-14 32-32l0-40c14-4 27-9 40-16l28 28c12 12 33 12 45 0l30-30c13-13 13-33 0-45l-28-28c7-13 12-26 16-40l40 0c9 0 17-3 23-9c6-6 9-14 9-23l0-42c0-18-14-32-32-32z m11 74c0 3-1 6-3 8c-2 2-5 3-8 3l-48 0c-5 0-9 3-10 8c-4 17-11 34-20 49c-3 4-2 9 1 13l34 34c4 4 4 11 0 15l-30 30c-4 4-11 4-15 0l-34-34c-4-3-9-4-13-1c-15 9-32 16-49 20c-5 1-8 5-8 10l0 48c0 6-5 11-11 11l-42 0c-6 0-11-5-11-11l0-48c0-5-3-9-8-10c-17-4-34-11-49-20c-1-2-3-2-5-2c-3 0-6 1-8 3l-34 34c-4 4-11 4-15 0l-30-30c-2-2-3-5-3-8c0-2 1-5 3-7l34-34c3-4 4-9 1-13c-9-15-16-32-20-49c-1-5-5-8-10-8l-48 0c-6 0-11-5-11-11l0-42c0-3 1-6 3-8c2-2 5-3 8-3l48 0c5 0 9-3 10-8c4-17 11-34 20-49c3-4 2-9-1-13l-34-34c-4-4-4-11 0-15l30-30c4-4 11-4 15 0l34 34c4 3 9 4 13 1c15-9 32-16 49-20c5-1 8-5 8-10l0-48c0-6 5-11 11-11l42 0c6 0 11 5 11 11l0 48c0 5 3 9 8 10c17 4 34 11 49 20c4 3 9 2 13-1l34-34c4-4 11-4 15 0l30 30c2 2 3 5 3 8c0 2-1 5-3 7l-34 34c-3 4-4 9-1 13c9 15 16 32 20 49c1 5 5 8 10 8l48 0c6 0 11 5 11 11z m-235-128c-59 0-107 48-107 107c0 59 48 107 107 107c59 0 107-48 107-107c0-59-48-107-107-107z m0 192c-47 0-85-38-85-85c0-47 38-85 85-85c47 0 85 38 85 85c0 47-38 85-85 85z"/>
    </symbol>
  
    <symbol id="icon-heart" viewBox="0 0 512 512">
      <path d="m383 35c-48 0-102 27-127 88c-25-61-79-88-127-88c-62 0-129 45-129 144c0 73 42 150 126 227c62 57 122 92 125 94c1 1 3 1 5 1c2 0 4 0 5-1c3-2 63-37 125-94c84-77 126-154 126-227c0-99-67-144-129-144z m-127 443c-35-22-235-151-235-299c0-84 56-123 108-123c48 0 102 33 117 106c0 5 5 9 10 9c5 0 10-4 10-9c15-73 69-106 117-106c52 0 108 39 108 123c0 148-200 277-235 299z"/>
    </symbol>
  
    <symbol id="icon-sync" viewBox="0 0 512 512">
      <path d="m150 214c3-5 1-12-4-15c-4-3-11-2-14 3l-43 66c-2-35 6-71 25-102c24-38 62-66 106-76c61-15 125 6 167 53c4 4 11 5 15 1c5-4 5-11 1-15c-47-53-119-76-188-60c-50 12-92 42-119 86c-20 33-30 71-28 109l-47-54c-4-4-11-5-15-1c-4 4-5 11-1 15l70 81c0 0 0 0 0 0c1 1 2 1 3 2c0 0 0 0 1 1c1 0 2 0 4 0c0 0 0 0 0 0c0 0 0 0 1 0c0 0 0 0 0 0c0 0 1 0 1 0c1 0 2 0 2-1c1 0 1 0 2 0c1-1 2-2 2-3c1 0 1 0 1 0z m358 104l-60-88c0-1 0-1 0-1c-1-1-2-2-3-2c0-1-1-1-1-1c-1 0-2-1-3-1c0 0-1 0-1 0c0 0-1 0-2 0c0 0 0 0 0 0c0 0 0 0 0 0c-1 0-2 1-4 1c0 0 0 0 0 0c-1 1-2 2-3 3l-68 82c-4 4-3 11 1 15c5 3 12 3 15-2l51-60c-4 75-56 140-131 158c-58 14-117-3-160-45c-4-4-11-4-15 1c-4 4-4 10 0 15c37 36 85 55 135 55c15 0 30-2 45-5c82-20 140-90 147-172l39 59c2 3 6 5 9 5c2 0 4-1 6-2c5-3 6-10 3-15z"/>
    </symbol>
  
    <symbol id="icon-photos" viewBox="0 0 512 512">
      <path d="m427 373l-342 0l0-213l22 0l0-21l-32 0c-6 0-11 4-11 10l0 235c0 6 5 11 11 11l362 0c6 0 11-5 11-11l0-53l-21 0z m74-320l-362 0c-6 0-11 5-11 11l0 235c0 6 5 10 11 10l362 0c6 0 11-4 11-10l0-235c0-6-5-11-11-11z m-10 235l-342 0l0-213l342 0z m-128 171l-342 0l0-214l22 0l0-21l-32 0c-6 0-11 5-11 11l0 234c0 6 5 11 11 11l362 0c6 0 11-5 11-11l0-53l-21 0z"/>
    </symbol>
  
    <symbol id="icon-edit" viewBox="0 0 512 512">
      <path d="m384 245c-6 0-11 5-11 11l0 235l-352 0l0-427l288 0c6 0 11-5 11-11c0-6-5-10-11-10l-309 0l0 469l395 0l0-256c0-6-5-11-11-11z m126-224c-6-13-18-21-31-21c-8 0-16 3-22 10l-30 30c0 0 0 0 0 0c0 0 0 0 0 0l-174 173c0 1-1 2-2 3l-30 60c-2 5-1 10 2 13c2 2 5 3 8 3c1 0 3 0 5-1l60-30c1-1 2-2 3-2l203-204c10-10 13-22 8-34z m-225 221l-30 15l15-30l164-165l16 16z m202-202l-22 22l-15-15l22-22c2-3 5-4 7-4c5 0 9 4 11 8c2 4 1 7-3 11z"/>
    </symbol>
  
    <symbol id="icon-pen" viewBox="0 0 512 512">
      <path d="m509 64l-61-61c-2-2-4-3-7-3c-3 0-6 1-8 3l-8 9c-21-14-49-12-67 6l-121 121c-4 4-4 11 0 15c2 2 5 3 8 3c2 0 5-1 7-3l121-121c10-9 24-11 36-6l-346 346c-4 4-4 11 0 15l8 8l-38 37c-2 2-3 5-3 8c0 3 1 6 3 8l8 7l-38 38c-4 4-4 11 0 15c2 2 5 3 8 3c2 0 5-1 7-3l38-38l7 8c3 2 5 3 8 3c3 0 5-1 8-3l37-38l8 8c2 2 5 3 7 3c3 0 6-1 8-3l370-370c4-4 4-11 0-15z m-438 392l-15-15l30-30l15 15z m60-30l-37-38c0 0 0 0 0 0c0 0 0 0 0 0l-8-7l234-234l45 45z m249-249l-45-45l106-106l45 45z"/>
    </symbol>
  
    <symbol id="icon-stacks" viewBox="0 0 512 512">
      <path d="m256 509c-2 0-4-1-5-2l-222-128c-5-3-7-9-4-14 3-4 9-6 14-3l217 125 217-125c5-3 11-1 14 3 3 5 1 11-4 14l-222 128c-2 1-3 2-5 2z m0-76c-2 0-4-1-5-1l-222-129c-5-3-7-9-4-13 3-5 9-7 14-4l217 125 217-125c5-3 11-1 14 4 3 4 1 10-4 13l-222 128c-2 1-3 2-5 2z m0-76c-2 0-4 0-5-1l-222-129c-5-3-7-9-4-13 3-5 9-7 14-4l217 125 217-125c5-3 11-1 14 4 3 4 1 11-4 13l-222 129c-2 1-3 1-5 1z m0-76c-2 0-3 0-5-1l-222-128c-3-2-5-5-5-8 0-4 2-7 5-9l222-128c3-2 7-2 10 0l222 128c4 2 5 5 5 9 0 3-1 6-5 8l-222 128c-2 1-3 1-5 1z m-202-138l202 116 202-116-202-116z"/>
    </symbol>
  
    <symbol id="icon-doc" viewBox="0 0 512 512">
      <path d="m460 504l-402 0c-5 0-9-4-9-9l0-479c0-5 4-9 9-9l285 0c3 0 5 1 7 2l117 112c2 2 3 4 3 7l0 367c0 5-5 9-10 9z m-393-19l384 0 0-353-111-107-273 0z m226-363l-186 0c-5 0-9-4-9-9 0-5 4-9 9-9l186 0c5 0 9 4 9 9 0 5-4 9-9 9z m121 70l-307 0c-5 0-9-4-9-9 0-5 4-9 9-9l307 0c5 0 9 4 9 9 0 5-4 9-9 9z m0 70l-307 0c-5 0-9-4-9-9 0-5 4-9 9-9l307 0c5 0 9 4 9 9 0 5-4 9-9 9z m0 70l-307 0c-5 0-9-4-9-9 0-5 4-9 9-9l307 0c5 0 9 4 9 9 0 5-4 9-9 9z m-175 70l-136 0c-5 0-9-4-9-9 0-5 4-9 9-9l136 0c5 0 10 4 10 9 0 5-5 9-10 9z m104-265c-2 0-5-1-6-3-2-1-3-4-3-6l0-112c0-5 4-9 9-9 5 0 10 4 10 9l0 102 107 0c5 0 10 5 10 10 0 5-5 9-10 9z"/>
    </symbol>
  
    <symbol id="icon-plus" viewBox="0 0 512 512">
      <path d="m256 512c-69 0-133-27-181-75-48-48-75-113-75-181 0-69 27-133 75-181 48-48 113-75 181-75 68 0 133 27 181 75 48 48 75 113 75 181 0 68-27 133-75 181-48 48-113 75-181 75z m0-494c-64 0-123 25-168 70-45 45-70 105-70 168 0 63 25 123 70 168 45 45 104 70 168 70 63 0 123-25 168-70 45-45 70-105 70-168 0-64-25-123-70-168-45-45-105-70-168-70z m0 429c-5 0-9-4-9-9l0-361c0-5 4-9 9-9 5 0 10 4 10 9l0 361c0 5-5 9-10 9z m180-182l-360 0c-5 0-9-4-9-9 0-5 4-9 9-9l360 0c5 0 9 4 9 9 0 5-4 9-9 9z"/>
    </symbol>
  
    <symbol id="icon-x" viewBox="0 0 512 512">
      <path d="m256 512c-68 0-133-27-181-75-48-48-75-113-75-181 0-68 27-133 75-181 48-48 113-75 181-75 68 0 133 27 181 75 48 48 75 113 75 181 0 68-27 133-75 181-48 48-113 75-181 75z m0-494c-64 0-123 25-168 70-45 45-70 104-70 168 0 63 25 123 70 168 45 45 105 70 168 70 64 0 123-25 168-70 45-45 70-105 70-168 0-64-25-123-70-168-45-45-105-70-168-70z m-127 376c-2 0-5-1-7-2-1-2-2-5-2-7 0-2 1-5 2-7l255-254c4-4 10-4 13 0 2 2 3 4 3 6 0 3-1 5-3 7l-255 255c-1 1-4 2-6 2z m255-1c-2 0-4-1-6-3l-255-255c-2-1-3-4-3-6 0-2 1-5 3-7 4-3 9-3 13 0l255 255c2 2 2 4 2 7 0 2 0 4-2 6-2 2-4 3-7 3z"/>
    </symbol>
  
</svg>
