<svg xmlns="http://www.w3.org/2000/svg" style="display:none;">
  <symbol viewBox="0 0 32.6 31.8" id="icon-github" >
    <path fill-rule="evenodd" clip-rule="evenodd" fill="#181616" d="M16.3,0C7.3,0,0,7.3,0,16.3c0,7.2,4.7,13.3,11.1,15.5	c0.8,0.1,1.1-0.4,1.1-0.8c0-0.4,0-1.4,0-2.8c-4.5,1-5.5-2.2-5.5-2.2c-0.7-1.9-1.8-2.4-1.8-2.4c-1.5-1,0.1-1,0.1-1	c1.6,0.1,2.5,1.7,2.5,1.7c1.5,2.5,3.8,1.8,4.7,1.4c0.1-1.1,0.6-1.8,1-2.2c-3.6-0.4-7.4-1.8-7.4-8.1c0-1.8,0.6-3.2,1.7-4.4	C7.4,10.7,6.8,9,7.7,6.8c0,0,1.4-0.4,4.5,1.7c1.3-0.4,2.7-0.5,4.1-0.5c1.4,0,2.8,0.2,4.1,0.5c3.1-2.1,4.5-1.7,4.5-1.7	c0.9,2.2,0.3,3.9,0.2,4.3c1,1.1,1.7,2.6,1.7,4.4c0,6.3-3.8,7.6-7.4,8c0.6,0.5,1.1,1.5,1.1,3c0,2.2,0,3.9,0,4.5	c0,0.4,0.3,0.9,1.1,0.8c6.5-2.2,11.1-8.3,11.1-15.5C32.6,7.3,25.3,0,16.3,0z" ></path>
  </symbol>
  <symbol viewBox="188.5 0 560 560" id="icon-pastila" >
    <circle fill="#FFE1FF" cx="468.9" cy="274.4" r="258.4" ></circle><circle fill="none" stroke="#FFFFFF" stroke-width="20" stroke-miterlimit="10" cx="468.9" cy="274.4" r="258.4" ></circle>
    <path fill="#666666" d="M468.4,440.1c-1.1,0-2.2-0.3-3.2-0.9l-141.3-81.7c-3-1.7-4.1-5.6-2.3-8.7s5.6-4.1,8.7-2.3l138.2,79.9		l138.4-79.9c3-1.7,6.9-0.7,8.7,2.3s0.7,6.9-2.3,8.7l-141.5,81.7C470.6,439.9,469.5,440.1,468.4,440.1z" ></path>
    <path fill="#666666" d="M468.4,391.8c-1.1,0-2.2-0.3-3.2-0.9l-141.3-81.6c-3-1.7-4.1-5.6-2.3-8.7s5.6-4.1,8.7-2.3l138.2,79.8		l138.4-79.8c3-1.7,6.9-0.7,8.7,2.3s0.7,6.9-2.3,8.7l-141.5,81.6C470.6,391.5,469.5,391.8,468.4,391.8z" ></path>
    <path fill="#666666" d="M468.4,343.6c-1.1,0-2.2-0.3-3.2-0.9L323.9,261c-3-1.7-4.1-5.6-2.3-8.7s5.6-4.1,8.7-2.3l138.2,79.9		L606.8,250c3-1.7,6.9-0.7,8.7,2.3s0.7,6.9-2.3,8.7l-141.5,81.7C470.6,343.2,469.5,343.6,468.4,343.6z" ></path>
    <path fill="#666666" d="M468.4,295.2c-1.1,0-2.2-0.3-3.2-0.9l-141.3-81.1c-2-1.1-3.2-3.2-3.2-5.5c0-2.3,1.2-4.4,3.2-5.5l141.3-81.5		c2-1.1,4.4-1.1,6.3,0L613,202.2c2,1.1,3.2,3.2,3.2,5.5c0,2.3-1.2,4.4-3.2,5.5l-141.5,81.1C470.6,295,469.5,295.2,468.4,295.2z		 M339.8,207.7l128.6,73.8l128.8-73.8l-128.8-74.2L339.8,207.7z" ></path>
    <path fill="none" stroke="#FFFFFF" stroke-width="4" stroke-linecap="round" stroke-linejoin="round" stroke-miterlimit="10" d="	M275.8,149.9" ></path>
  </symbol>
</svg>
